<svg xmlns="http://www.w3.org/2000/svg" xmlns:xlink="http://www.w3.org/1999/xlink" xmlns:lucid="lucid" width="5312.87" height="4994.94"><g transform="translate(2545.2615934745254 495.31083527962846)" lucid:page-tab-id="0_0"><path d="M917.8-488.3a6 6 0 0 1 6-6h700a6 6 0 0 1 6 6v146.66a6 6 0 0 1-6 6h-700a6 6 0 0 1-6-6z" stroke="#000" stroke-width="2" fill="#fff"/><use xlink:href="#a" transform="matrix(1,0,0,1,953.3959051860367,-486.3775019462951) translate(260.9947916666667 91.88541666666667)"/><path d="M2054.6 611.4a6 6 0 0 1 6-6h700a6 6 0 0 1 6 6v146.66a6 6 0 0 1-6 6h-700a6 6 0 0 1-6-6z" stroke="#000" stroke-width="2" fill="#fff"/><use xlink:href="#b" transform="matrix(1,0,0,1,2090.2073560117483,613.3249035078755) translate(177.27083333333334 91.88541666666667)"/><use xlink:href="#c" transform="matrix(1,0,0,1,2090.2073560117483,613.3249035078755) translate(352.86979166666663 91.88541666666667)"/><path d="M-219.02 611.4a6 6 0 0 1 6-6h700a6 6 0 0 1 6 6v146.66a6 6 0 0 1-6 6h-700a6 6 0 0 1-6-6z" stroke="#000" stroke-width="2" fill="#fff"/><use xlink:href="#d" transform="matrix(1,0,0,1,-183.41554563967492,613.3249035078755) translate(166.2421875 91.88541666666667)"/><use xlink:href="#c" transform="matrix(1,0,0,1,-183.41554563967492,613.3249035078755) translate(363.8984375 91.88541666666667)"/><path d="M2054.6 1544.8a6 6 0 0 1 6-6h700a6 6 0 0 1 6 6v146.66a6 6 0 0 1-6 6h-700a6 6 0 0 1-6-6z" stroke="#000" stroke-width="2" fill="#fff"/><use xlink:href="#e" transform="matrix(1,0,0,1,2090.2073560117483,1546.7247523979725) translate(182.77864583333331 91.88541666666667)"/><use xlink:href="#f" transform="matrix(1,0,0,1,2090.2073560117483,1546.7247523979725) translate(347.36197916666663 91.88541666666667)"/><path d="M1273.76-333.14l-7.2 343.92" stroke="#3a414a" stroke-width="3" stroke-linejoin="round" fill="none"/><path d="M1275.24-333.07l-2.95-.06.02-1.5h2.95zM1268.03 10.78l-.03 1.75-.5-.15-.97-.1-.98.1-.5.15.03-1.82z" stroke="#3a414a" stroke-width=".05" fill="#3a414a"/><path d="M2410.6 766.56v263.77" stroke="#3a414a" stroke-width="3" stroke-linejoin="round" fill="none"/><path d="M2412.08 766.6h-2.95v-1.54h2.95zM2412.08 1032.08l-.5-.15-.97-.1-.97.1-.5.14v-1.78h2.95z" stroke="#3a414a" stroke-width=".05" fill="#3a414a"/><path d="M2410.6 1220.3v316" stroke="#3a414a" stroke-width="3" stroke-linejoin="round" fill="none"/><path d="M2412.08 1218.78v1.55h-2.95v-1.55zM2412.08 1537.8h-2.95v-1.55h2.95z" stroke="#3a414a" stroke-width=".05" fill="#3a414a"/><path d="M-2544.26 611.4a6 6 0 0 1 6-6h700a6 6 0 0 1 6 6v146.66a6 6 0 0 1-6 6h-700a6 6 0 0 1-6-6z" stroke="#000" stroke-width="2" fill="#fff"/><use xlink:href="#g" transform="matrix(1,0,0,1,-2508.6615934745255,613.3249035078755) translate(61.52864583333337 91.88541666666667)"/><use xlink:href="#h" transform="matrix(1,0,0,1,-2508.6615934745255,613.3249035078755) translate(335.77343750000006 91.88541666666667)"/><path d="M-2544.26 2005.32a6 6 0 0 1 6-6h700a6 6 0 0 1 6 6V2152a6 6 0 0 1-6 6h-700a6 6 0 0 1-6-6z" stroke="#000" stroke-width="2" fill="#fff"/><use xlink:href="#i" transform="matrix(1,0,0,1,-2508.6615934745255,2007.25653148149) translate(190.87760416666666 91.88541666666667)"/><path d="M-2544.26 3399.26a6 6 0 0 1 6-6h700a6 6 0 0 1 6 6v146.66a6 6 0 0 1-6 6h-700a6 6 0 0 1-6-6z" stroke="#000" stroke-width="2" fill="#fff"/><use xlink:href="#j" transform="matrix(1,0,0,1,-2508.6615934745255,3401.1881594551032) translate(200.78645833333334 91.88541666666667)"/><path d="M-1011.18 547.05a10.07 10.07 0 0 1 10.3 0l225.92 134.6a3.58 3.58 0 0 1 0 6.15l-225.9 134.6a10.07 10.07 0 0 1-10.32 0l-225.9-134.6a3.58 3.58 0 0 1 0-6.15z" stroke="#000" stroke-width="2" fill="#fff"/><use xlink:href="#k" transform="matrix(1,0,0,1,-1218.6187310193418,558.0493517715963) translate(82.44640625000001 141.9375)"/><use xlink:href="#l" transform="matrix(1,0,0,1,-1218.6187310193418,558.0493517715963) translate(160.92296875 141.9375)"/><use xlink:href="#m" transform="matrix(1,0,0,1,-1218.6187310193418,558.0493517715963) translate(305.88390625 141.9375)"/><path d="M-708.64 686.2h-62.06v-2.95h62.06zm487.12 0h-394.26v-2.95h394.26z" stroke="#3a414a" stroke-width=".05" fill="#3a414a"/><path d="M-770.67 686.2h-1.8l.16-.54.1-.93-.1-.95-.18-.53h1.8z" fill="#3a414a"/><path stroke="#3a414a" stroke-width=".05" fill="#3a414a"/><path d="M-220.02 686.2h-1.53v-2.95h1.53z" fill="#3a414a"/><path stroke="#3a414a" stroke-width=".05" fill="#3a414a"/><use xlink:href="#n" transform="matrix(1,0,0,1,-708.6411468799071,652.4592785078756) translate(0 51.66666666666667)"/><path d="M-1366.6 686.2h-463.16v-2.95h463.17zm125.25 0h-32.38v-2.95h32.38z" stroke="#3a414a" stroke-width=".05" fill="#3a414a"/><path d="M-1239.74 683.8l-.1.93.1.93.17.54h-1.8v-2.95h1.8z" fill="#3a414a"/><path stroke="#3a414a" stroke-width=".05" fill="#3a414a"/><path d="M-1829.72 686.2h-1.54v-2.95h1.54z" fill="#3a414a"/><path stroke="#3a414a" stroke-width=".05" fill="#3a414a"/><use xlink:href="#n" transform="matrix(1,0,0,1,-1366.589466026282,652.4592785078756) translate(0 51.66666666666667)"/><path d="M-2193.42 1244a10.07 10.07 0 0 1 10.3 0l225.92 134.62a3.58 3.58 0 0 1 0 6.14l-225.9 134.6a10.07 10.07 0 0 1-10.32 0l-225.9-134.6a3.58 3.58 0 0 1 0-6.14z" stroke="#000" stroke-width="2" fill="#fff"/><use xlink:href="#o" transform="matrix(1,0,0,1,-2400.855869367815,1255.0151657584036) translate(133.28625 141.9375)"/><path d="M-2186.8 1240.1h-2.94v-42.37h2.95zm0-106.9h-2.94V766.57h2.95z" stroke="#3a414a" stroke-width=".05" fill="#3a414a"/><path d="M-2186.8 766.6h-2.94v-1.54h2.95z" fill="#3a414a"/><path stroke="#3a414a" stroke-width=".05" fill="#3a414a"/><path d="M-2186.8 1241.7l-.27-.05-1.2-.06-1.18.06-.3.04v-1.65h2.96z" fill="#3a414a"/><path stroke="#3a414a" stroke-width=".05" fill="#3a414a"/><use xlink:href="#n" transform="matrix(1,0,0,1,-2234.693885141192,1133.1990386216107) translate(0 51.66666666666667)"/><path d="M-2186.8 1996.82h-2.94v-379.5h2.95zm0-444.04h-2.94v-29.48h2.95z" stroke="#3a414a" stroke-width=".05" fill="#3a414a"/><path d="M-2189.45 1521.73l1.2.06 1.18-.07.28-.05v1.66h-2.94v-1.66z" fill="#3a414a"/><path stroke="#3a414a" stroke-width=".05" fill="#3a414a"/><path d="M-2186.8 1998.32h-2.94v-1.53h2.95z" fill="#3a414a"/><path stroke="#3a414a" stroke-width=".05" fill="#3a414a"/><use xlink:href="#n" transform="matrix(1,0,0,1,-2234.6938851411924,1552.7795598994176) translate(0 51.66666666666667)"/><path d="M-2193.42 2637.94a10.07 10.07 0 0 1 10.3 0l225.92 134.6a3.58 3.58 0 0 1 0 6.15l-225.9 134.6a10.07 10.07 0 0 1-10.32 0l-225.9-134.6a3.58 3.58 0 0 1 0-6.15z" stroke="#000" stroke-width="2" fill="#fff"/><use xlink:href="#p" transform="matrix(1,0,0,1,-2400.855869367815,2648.946793732017) translate(85.41515625000001 141.9375)"/><use xlink:href="#q" transform="matrix(1,0,0,1,-2400.855869367815,2648.946793732017) translate(127.46593750000001 141.9375)"/><use xlink:href="#r" transform="matrix(1,0,0,1,-2400.855869367815,2648.946793732017) translate(269.59484375 141.9375)"/><path d="M-2186.8 2634.02h-2.94v-37.83h2.95zm0-102.36h-2.94V2160.5h2.95z" stroke="#3a414a" stroke-width=".05" fill="#3a414a"/><path d="M-2186.8 2160.53h-2.94V2159h2.95z" fill="#3a414a"/><path stroke="#3a414a" stroke-width=".05" fill="#3a414a"/><path d="M-2186.8 2635.63l-.27-.04-1.2-.08-1.18.07-.3.03v-1.65h2.96z" fill="#3a414a"/><path stroke="#3a414a" stroke-width=".05" fill="#3a414a"/><use xlink:href="#s" transform="matrix(1,0,0,1,-2199.758989307859,2531.6579159755265) translate(0 51.66666666666667)"/><path d="M-2185 3390.75h-2.94l-1.44-380.95h2.95zm-1.68-445.5h-2.95l-.1-28 2.95-.03z" stroke="#3a414a" stroke-width=".05" fill="#3a414a"/><path d="M-2189.45 2915.66l1.2.06 1.18-.06.28-.05.02 1.66h-2.95v-1.65z" fill="#3a414a"/><path stroke="#3a414a" stroke-width=".05" fill="#3a414a"/><path d="M-2185 3392.26h-2.94v-1.54h2.95z" fill="#3a414a"/><path stroke="#3a414a" stroke-width=".05" fill="#3a414a"/><use xlink:href="#t" transform="matrix(1,0,0,1,-2228.7574134876936,2945.263293728664) translate(0 51.66666666666667)"/><path d="M-219.02 1544.8a6 6 0 0 1 6-6h700a6 6 0 0 1 6 6v146.66a6 6 0 0 1-6 6h-700a6 6 0 0 1-6-6z" stroke="#000" stroke-width="2" fill="#fff"/><use xlink:href="#u" transform="matrix(1,0,0,1,-183.41554563967492,1546.7247523979727) translate(261.5546875 91.88541666666667)"/><path d="M-1440.63 3082.36a6 6 0 0 1 6-6h700a6 6 0 0 1 6 6v146.67a6 6 0 0 1-6 6h-700a6 6 0 0 1-6-6z" stroke="#000" stroke-width="2" fill="#fff"/><use xlink:href="#v" transform="matrix(1,0,0,1,-1405.0300748805216,3084.2943383528927) translate(137.62239583333334 91.88541666666667)"/><use xlink:href="#w" transform="matrix(1,0,0,1,-1405.0300748805216,3084.2943383528927) translate(393.9765625 91.88541666666667)"/><path d="M957.72 3082.36a6 6 0 0 1 6-6h700a6 6 0 0 1 6 6v146.67a6 6 0 0 1-6 6h-700a6 6 0 0 1-6-6z" stroke="#000" stroke-width="2" fill="#fff"/><use xlink:href="#x" transform="matrix(1,0,0,1,993.3244797040951,3084.2943383528923) translate(180.72135416666666 91.88541666666667)"/><use xlink:href="#y" transform="matrix(1,0,0,1,993.3244797040951,3084.2943383528923) translate(350.87760416666663 91.88541666666667)"/><path d="M957.72 4345.96a6 6 0 0 1 6-6h700a6 6 0 0 1 6 6v146.67a6 6 0 0 1-6 6h-700a6 6 0 0 1-6-6z" stroke="#000" stroke-width="2" fill="#fff"/><use xlink:href="#z" transform="matrix(1,0,0,1,993.3244797040951,4347.896129617461) translate(59.2890625 91.88541666666667)"/><use xlink:href="#A" transform="matrix(1,0,0,1,993.3244797040951,4347.896129617461) translate(229.4453125 91.88541666666667)"/><use xlink:href="#B" transform="matrix(1,0,0,1,993.3244797040951,4347.896129617461) translate(353.8463541666667 91.88541666666667)"/><path d="M-1440.63 4345.96a6 6 0 0 1 6-6h700a6 6 0 0 1 6 6v146.67a6 6 0 0 1-6 6h-700a6 6 0 0 1-6-6z" stroke="#000" stroke-width="2" fill="#fff"/><use xlink:href="#C" transform="matrix(1,0,0,1,-1405.0300748805216,4347.896129617461) translate(16.190104166666686 91.88541666666667)"/><use xlink:href="#D" transform="matrix(1,0,0,1,-1405.0300748805216,4347.896129617461) translate(272.5442708333333 91.88541666666667)"/><use xlink:href="#E" transform="matrix(1,0,0,1,-1405.0300748805216,4347.896129617461) translate(396.9453125 91.88541666666667)"/><path d="M-211.62 3082.36a6 6 0 0 1 6-6h700a6 6 0 0 1 6 6v146.67a6 6 0 0 1-6 6h-700a6 6 0 0 1-6-6z" stroke="#000" stroke-width="2" fill="#fff"/><use xlink:href="#F" transform="matrix(1,0,0,1,-176.0162595697322,3084.2943383528927) translate(140.12239583333331 91.88541666666667)"/><use xlink:href="#B" transform="matrix(1,0,0,1,-176.0162595697322,3084.2943383528927) translate(273.0130208333333 91.88541666666667)"/><path d="M-1011.18 1480.44a10.07 10.07 0 0 1 10.3 0l225.92 134.6a3.58 3.58 0 0 1 0 6.16l-225.9 134.6a10.07 10.07 0 0 1-10.32 0l-225.9-134.6a3.58 3.58 0 0 1 0-6.15z" stroke="#000" stroke-width="2" fill="#fff"/><use xlink:href="#o" transform="matrix(1,0,0,1,-1218.6187310193418,1491.449200661693) translate(133.28625 141.9375)"/><path d="M-1375.63 1660.22l-9.07 6.3-9.7 7.37-10.07 8.33-10.6 9.54-11.3 11.07-12.27 13.1-13.75 15.94-16.12 20.4-110.5 164.73-21.2 29.27-16.22 20.5-13.82 16.05-12.37 13.18-11.4 11.16-10.67 9.63-10.17 8.4-9.8 7.44-9.5 6.6-9.3 5.92-9.17 5.3-9.1 4.75-9.08 4.28-9.1 3.83-9.17 3.42-9.28 3.02-9.46 2.64-9.68 2.27-9.95 1.9-10.28 1.52-10.68 1.12-11.14.7-10.15.2-.06-2.95 10.1-.2 11-.7 10.56-1.1 10.16-1.5 9.83-1.88 9.55-2.24 9.35-2.6 9.17-3 9.06-3.36 8.98-3.78 8.97-4.23 8.98-4.7 9.07-5.23 9.2-5.85 9.4-6.55 9.7-7.36 10.07-8.34 10.6-9.55 11.3-11.06 12.27-13.1 13.75-15.94 16.14-20.4 21.12-29.18 110.54-164.78 16.24-20.54 13.83-16.04 12.36-13.18 11.4-11.16 10.67-9.63 10.18-8.43 9.78-7.43 9.5-6.6 1.3-.83zm134.33-40.6l-10.1.22-11.02.7-10.56 1.1-9.8 1.45v-3l9.43-1.4 10.68-1.1 11.14-.7 10.16-.22z" stroke="#3a414a" stroke-width=".05" fill="#3a414a"/><path d="M-1829.68 2080.1l-1.58.03v-2.95l1.52-.03z" fill="#3a414a"/><path stroke="#3a414a" stroke-width=".05" fill="#3a414a"/><path d="M-1239.74 1617.18l-.1.94.1.95.17.53h-1.8v-2.95h1.8z" fill="#3a414a"/><path stroke="#3a414a" stroke-width=".05" fill="#3a414a"/><use xlink:href="#n" transform="matrix(1,0,0,1,-1375.634095252281,1602.0423976536988) translate(0 51.66666666666667)"/><path d="M-718.3 1619.6h-52.4v-2.95h52.4zm496.78 0h-403.9v-2.95h403.9z" stroke="#3a414a" stroke-width=".05" fill="#3a414a"/><path d="M-770.67 1619.6h-1.8l.16-.53.1-.94-.1-.95-.18-.53h1.8z" fill="#3a414a"/><path stroke="#3a414a" stroke-width=".05" fill="#3a414a"/><path d="M-220.02 1619.6h-1.53v-2.95h1.53z" fill="#3a414a"/><path stroke="#3a414a" stroke-width=".05" fill="#3a414a"/><use xlink:href="#n" transform="matrix(1,0,0,1,-718.3000587968523,1585.8591273979725) translate(0 51.66666666666667)"/><path d="M-1089.78 3649.82a10.07 10.07 0 0 1 10.3 0l225.9 134.6a3.58 3.58 0 0 1 0 6.15l-225.9 134.6a10.07 10.07 0 0 1-10.3 0l-225.9-134.6a3.58 3.58 0 0 1 0-6.15z" stroke="#000" stroke-width="2" fill="#fff"/><use xlink:href="#G" transform="matrix(1,0,0,1,-1297.2243507738112,3660.819682248897) translate(132.182734375 141.9375)"/><path d="M-1083.15 3645.9h-2.95V3624h2.94zm0-86.44h-2.95v-321.93h2.94z" stroke="#3a414a" stroke-width=".05" fill="#3a414a"/><path d="M-1083.15 3237.57h-2.95v-1.54h2.94z" fill="#3a414a"/><path stroke="#3a414a" stroke-width=".05" fill="#3a414a"/><path d="M-1083.15 3647.5l-.3-.04-1.18-.07-1.2.06-.28.05v-1.64h2.94z" fill="#3a414a"/><path stroke="#3a414a" stroke-width=".05" fill="#3a414a"/><use xlink:href="#s" transform="matrix(1,0,0,1,-1096.1274707138548,3559.458805470219) translate(0 51.66666666666667)"/><path d="M-1083.15 4337.46h-2.95v-319.22h2.94zm0-383.75h-2.95v-24.6h2.94z" stroke="#3a414a" stroke-width=".05" fill="#3a414a"/><path d="M-1085.82 3927.53l1.2.06 1.18-.07.3-.05v1.66h-2.96v-1.65z" fill="#3a414a"/><path stroke="#3a414a" stroke-width=".05" fill="#3a414a"/><path d="M-1083.15 4338.96h-2.95v-1.54h2.94z" fill="#3a414a"/><path stroke="#3a414a" stroke-width=".05" fill="#3a414a"/><use xlink:href="#n" transform="matrix(1,0,0,1,-1131.0623665471885,3953.7109300192687) translate(0 51.66666666666667)"/><path d="M1308.57 3649.82a10.07 10.07 0 0 1 10.3 0l225.92 134.6a3.58 3.58 0 0 1 0 6.15l-225.92 134.6a10.07 10.07 0 0 1-10.3 0l-225.92-134.6a3.58 3.58 0 0 1 0-6.15z" stroke="#000" stroke-width="2" fill="#fff"/><use xlink:href="#H" transform="matrix(1,0,0,1,1101.1302038108054,3660.819682248897) translate(132.182734375 141.9375)"/><path d="M1315.2 3645.9h-2.95v-5.2h2.95zm0-69.74h-2.95v-338.63h2.95z" stroke="#3a414a" stroke-width=".05" fill="#3a414a"/><path d="M1315.2 3237.57h-2.95v-1.54h2.95z" fill="#3a414a"/><path stroke="#3a414a" stroke-width=".05" fill="#3a414a"/><path d="M1315.2 3647.5l-.3-.04-1.18-.07-1.18.06-.3.05v-1.64h2.96z" fill="#3a414a"/><path stroke="#3a414a" stroke-width=".05" fill="#3a414a"/><use xlink:href="#s" transform="matrix(1,0,0,1,1302.2270838707616,3576.1568081169953) translate(0 51.66666666666667)"/><path d="M1315.2 4337.46h-2.95v-317.38h2.95zm0-381.9h-2.95v-26.46h2.95z" stroke="#3a414a" stroke-width=".05" fill="#3a414a"/><path d="M1312.54 3927.53l1.18.06 1.2-.07.28-.05v1.66h-2.95v-1.65z" fill="#3a414a"/><path stroke="#3a414a" stroke-width=".05" fill="#3a414a"/><path d="M1315.2 4338.96h-2.95v-1.54h2.95z" fill="#3a414a"/><path stroke="#3a414a" stroke-width=".05" fill="#3a414a"/><use xlink:href="#n" transform="matrix(1,0,0,1,1267.2921880374283,3955.5536958508073) translate(0 51.66666666666667)"/><path d="M21.1 3876.6a3.2 3.2 0 0 0 2.66 4.97H265a3.2 3.2 0 0 0 2.66-4.98l-119.93-178.2a4.04 4.04 0 0 0-6.7 0z" stroke="#000" stroke-width="2" fill="#fff"/><path d="M144.38 3237.53v456.58" stroke="#3a414a" stroke-width="3" stroke-linejoin="round" fill="none"/><path d="M145.86 3237.57h-2.95v-1.54h2.96zM145.86 3695.86l-.5-.15-.98-.1-.98.1-.5.16v-1.8h2.96z" stroke="#3a414a" stroke-width=".05" fill="#3a414a"/><path d="M144.35 3884.08l-.43 20.68-1.32 21.06-2.1 20.06-2.84 19.2-3.5 18.43-4.17 17.76-4.8 17.16-5.4 16.64-6.03 16.18-6.63 15.78-7.27 15.44-7.92 15.14-8.6 14.9-9.3 14.68-10.1 14.52-10.92 14.37-11.8 14.28-12.8 14.2-13.86 14.14-15.04 14.12-16.37 14.12-17.83 14.12-19.48 14.15-21.34 14.18-23.42 14.18-25.82 14.2-28.52 14.13-31.6 14.06-35.14 13.9-39.13 13.6-43.7 13.18-48.8 12.5-54.5 11.57-60.72 10.26-67.17 8.46-73.52 6.15-79.06 3.3-39.53.4" stroke="#3a414a" stroke-width="3" stroke-linejoin="round" fill="none"/><path d="M145.86 3882.57l-.03 1.58-2.95-.06.03-1.53zM-726.08 4420.76h-1.55v-2.94h1.52z" stroke="#3a414a" stroke-width=".05" fill="#3a414a"/><path d="M144.4 3884.08l.44 20.48 1.32 20.97 2.1 20.06 2.85 19.26 3.55 18.57 4.2 17.94 4.86 17.4 5.5 16.93 6.15 16.5 6.78 16.13 7.44 15.82 8.13 15.54 8.84 15.3 9.6 15.12 10.4 14.96 11.26 14.83 12.2 14.74 13.2 14.66 14.3 14.6 15.5 14.56 16.84 14.53 18.32 14.5 19.95 14.5 21.78 14.45 23.8 14.4 26.07 14.33 28.58 14.17 31.37 13.96 34.47 13.65 37.88 13.18 41.56 12.53 45.52 11.67 49.6 10.53 53.73 9.07 57.6 7.27 61 5.1 63.44 2.66 30.73.32" stroke="#3a414a" stroke-width="3" stroke-linejoin="round" fill="none"/><path d="M145.86 3882.57l.03 1.52-2.96.05-.03-1.58zM956.72 4417.82v2.95l-1.55-.02.03-2.94z" stroke="#3a414a" stroke-width=".05" fill="#3a414a"/><path d="M136.96 1699.97l-4.48 244.73-17.88 495.77" stroke="#3a414a" stroke-width="3" stroke-linejoin="round" fill="none"/><path d="M138.43 1700.03l-2.95-.05.03-1.52h2.96zM116.02 2440.43v1.78l-.5-.14-.97-.1-.98.1-.5.15v-1.77zM125.3 2631.47l.16 2.52.26 2.5.37 2.48.46 2.48.6 2.5.7 2.5.8 2.53.96 2.55 1.1 2.6 1.26 2.68 1.43 2.74 1.64 2.82 1.85 2.9 2.1 3.04 2.4 3.16 2.75 3.32 3.15 3.5 3.62 3.7 4.2 3.93 4.9 4.22 5.75 4.56 6.82 4.94 8.16 5.42 9.9 5.98 12.18 6.68 15.25 7.55 19.52 8.7 25.73 10.14 35.24 12.23 51.2 15.37 82.93 21.12 206.24 42.73 366.45 72.94 83.08 21.16 51.3 15.4 35.37 12.27 25.85 10.2 19.64 8.72 15.36 7.6 12.3 6.75 10 6.05 8.27 5.48 6.9 5.02 5.85 4.63 5 4.3 4.3 4.03 3.7 3.8 3.23 3.58 2.82 3.4 2.48 3.27 2.18 3.14 1.92 3.02 1.7 2.93 1.48 2.84 1.3 2.78 1.15 2.72 1 2.68.87 2.65.74 2.63.62 2.6.5 2.6.38 2.62.28 2.62.16 2.64.03 1.15-2.95.06-.02-1.1-.16-2.52-.27-2.5-.36-2.48-.47-2.48-.58-2.5-.7-2.5-.82-2.53-.96-2.57-1.1-2.6-1.25-2.68-1.44-2.74-1.63-2.8-1.85-2.93-2.1-3.03-2.4-3.16-2.75-3.32-3.15-3.5-3.63-3.7-4.2-3.93-4.9-4.22-5.75-4.55-6.82-4.94-8.16-5.4-9.9-6-12.18-6.68-15.26-7.56-19.53-8.67-25.72-10.16-35.24-12.23-51.2-15.36-82.93-21.12-366.4-72.94-206.3-42.75L349 2774.6l-51.32-15.42-35.36-12.27-25.84-10.2-19.64-8.7-15.37-7.62-12.3-6.75-10-6.05-8.26-5.48-6.9-5.02-5.86-4.63-5-4.3-4.28-4.03-3.7-3.8-3.25-3.58-2.8-3.4-2.5-3.27-2.16-3.13-1.92-3.02-1.7-2.93-1.48-2.86-1.3-2.78-1.16-2.72-1-2.68-.86-2.65-.73-2.62-.62-2.6-.5-2.6-.4-2.62-.26-2.62-.17-2.64-.02-1.14 2.95-.07z" stroke="#3a414a" stroke-width=".05" fill="#3a414a"/><path d="M125.25 2628.92l.03 1.5-2.95.07-.03-1.58z" fill="#3a414a"/><path stroke="#3a414a" stroke-width=".05" fill="#3a414a"/><path d="M1315.2 3075.36h-2.95v-1.54h2.95z" fill="#3a414a"/><path stroke="#3a414a" stroke-width=".05" fill="#3a414a"/><path d="M116 2630.46l-.03 1.12-.17 2.62-.27 2.6-.4 2.6-.48 2.58-.6 2.6-.73 2.6-.86 2.63-1 2.67-1.13 2.7-1.3 2.77-1.48 2.83-1.68 2.9-1.9 3-2.17 3.13-2.47 3.24-2.8 3.4-3.22 3.55-3.68 3.76-4.27 4-4.96 4.3-5.83 4.6-6.9 5-8.2 5.45-9.97 6.03-12.23 6.7-15.3 7.58-19.54 8.7-25.72 10.14-35.15 12.2-50.97 15.3-82.2 20.94-195.2 40.53-390.98 77.28-82.07 20.9-50.85 15.26-35.05 12.16-25.6 10.1-19.44 8.64-15.2 7.52-12.1 6.65-9.86 5.96-8.13 5.4-6.77 4.92-5.72 4.53-4.86 4.2-4.18 3.93-3.6 3.67-3.13 3.48-2.73 3.3-2.4 3.14-2.1 3-1.83 2.9-1.62 2.8-1.42 2.73-1.25 2.65-1.1 2.6-.94 2.54-.8 2.52-.7 2.48-.6 2.47-.46 2.48-.36 2.47-.26 2.47-.16 2.5-.02 1.07-2.95-.07.02-1.13.17-2.62.27-2.6.37-2.6.5-2.58.6-2.6.73-2.6.86-2.63 1-2.66 1.13-2.7 1.3-2.76 1.47-2.83 1.68-2.9 1.9-3 2.17-3.12 2.47-3.24 2.8-3.4 3.2-3.56 3.7-3.76 4.27-4 4.96-4.3 5.82-4.6 6.88-5 8.23-5.45 9.96-6.02 12.23-6.7 15.3-7.58 19.54-8.7 25.7-10.14 35.17-12.2 50.97-15.3 82.2-20.93 391.06-77.28 195.1-40.52 82.1-20.9 50.84-15.26 35.05-12.16 25.6-10.1 19.43-8.64 15.18-7.52 12.13-6.65 9.85-5.96 8.12-5.38 6.78-4.92 5.73-4.53 4.88-4.2 4.18-3.92 3.6-3.68 3.13-3.47 2.72-3.3 2.4-3.14 2.08-3 1.84-2.9 1.62-2.8 1.43-2.73 1.23-2.65 1.1-2.6.94-2.54.82-2.52.7-2.48.56-2.48.48-2.46.36-2.47.26-2.47.16-2.5.02-1.07z" stroke="#3a414a" stroke-width=".05" fill="#3a414a"/><path d="M116.02 2628.92l-.03 1.57-2.96-.07.03-1.5z" fill="#3a414a"/><path stroke="#3a414a" stroke-width=".05" fill="#3a414a"/><path d="M-1083.15 3073.82v1.54h-2.95v-1.54z" fill="#3a414a"/><path stroke="#3a414a" stroke-width=".05" fill="#3a414a"/><path d="M-8.73 2622.94a3.2 3.2 0 0 0 2.65 4.98h241.25a3.2 3.2 0 0 0 2.65-4.98l-119.92-178.2a4.04 4.04 0 0 0-6.7 0zM1308.57 2386.2a10.07 10.07 0 0 1 10.3 0l225.92 134.62a3.58 3.58 0 0 1 0 6.14l-225.92 134.6a10.07 10.07 0 0 1-10.3 0l-225.92-134.6a3.58 3.58 0 0 1 0-6.14z" stroke="#000" stroke-width="2" fill="#fff"/><use xlink:href="#p" transform="matrix(1,0,0,1,1101.1302038108054,2397.2178909843306) translate(88.32531250000001 141.9375)"/><use xlink:href="#I" transform="matrix(1,0,0,1,1101.1302038108054,2397.2178909843306) translate(130.37609375 141.9375)"/><use xlink:href="#J" transform="matrix(1,0,0,1,1101.1302038108054,2397.2178909843306) translate(297.895625 141.9375)"/><path d="M-1089.78 2386.2a10.07 10.07 0 0 1 10.3 0l225.9 134.62a3.58 3.58 0 0 1 0 6.14l-225.9 134.6a10.07 10.07 0 0 1-10.3 0l-225.9-134.6a3.58 3.58 0 0 1 0-6.14z" stroke="#000" stroke-width="2" fill="#fff"/><use xlink:href="#p" transform="matrix(1,0,0,1,-1297.2243507738112,2397.21789098433) translate(88.32531250000001 141.9375)"/><use xlink:href="#I" transform="matrix(1,0,0,1,-1297.2243507738112,2397.21789098433) translate(130.37609375 141.9375)"/><use xlink:href="#J" transform="matrix(1,0,0,1,-1297.2243507738112,2397.21789098433) translate(297.895625 141.9375)"/><path d="M1315.2 3073.86h-2.95V2760h2.95zm0-378.37h-2.95v-30h2.95z" stroke="#3a414a" stroke-width=".05" fill="#3a414a"/><path d="M1315.2 3075.36h-2.95v-1.54h2.95z" fill="#3a414a"/><path stroke="#3a414a" stroke-width=".05" fill="#3a414a"/><path d="M1312.54 2663.93l1.18.06 1.2-.07.28-.05v1.65h-2.95v-1.65z" fill="#3a414a"/><path stroke="#3a414a" stroke-width=".05" fill="#3a414a"/><use xlink:href="#n" transform="matrix(1,0,0,1,1267.292188037428,2695.486641654789) translate(0 51.66666666666667)"/><path d="M-1083.15 3073.86h-2.95v-315.13h2.94zm0-379.66h-2.95v-28.7h2.94z" stroke="#3a414a" stroke-width=".05" fill="#3a414a"/><path d="M-1083.15 3075.36h-2.95v-1.54h2.94z" fill="#3a414a"/><path stroke="#3a414a" stroke-width=".05" fill="#3a414a"/><path d="M-1085.82 2663.93l1.2.06 1.18-.07.3-.05v1.65h-2.96v-1.65z" fill="#3a414a"/><path stroke="#3a414a" stroke-width=".05" fill="#3a414a"/><use xlink:href="#n" transform="matrix(1,0,0,1,-1131.0623665471885,2694.1955407481264) translate(0 51.66666666666667)"/><path d="M1312.46 2317.32l2.03 32.37.67 32.54-2.95.06-.68-32.5-2.02-32.23-.25-2.42h2.96zM139.16 799.04l2.03 32.24 3.22 30.8 4.36 29.54 5.44 28.52 6.5 27.67 7.53 27 8.6 26.45 9.7 26.06 10.84 25.83 12.1 25.72 13.48 25.78 15 26 16.76 26.37 18.77 27 21.17 27.86 24.07 29.08 27.7 30.74 32.45 33.1 38.98 36.57 48.9 42.15 66.9 52.88L789.65 1617l129.15 93.1 67 52.98 49 42.22 39.08 36.66 32.53 33.2 27.8 30.83 24.15 29.16 21.24 27.96 18.83 27.1 16.82 26.5 15.07 26.08 13.53 25.88 12.16 25.84 10.92 25.93 9.73 26.18 8.64 26.57 7.56 27.1 6.5 27.8 4.3 22.5h-3l-4.17-21.9-6.5-27.66-7.54-27-8.6-26.44-9.7-26.06-10.84-25.82-12.1-25.72-13.5-25.78-15-25.98-16.75-26.4-18.77-26.98-21.16-27.87-24.07-29.1-27.7-30.73-32.45-33.1-39-36.57-48.9-42.14-66.9-52.9-129.08-93.05-256.03-180.65-67-52.98-49-42.22-39.07-36.66-32.54-33.2-27.8-30.84-24.14-29.16-21.24-27.97-18.84-27.1-16.82-26.5-15.07-26.08-13.55-25.88-12.15-25.84-10.9-25.93-9.75-26.18-8.63-26.57-7.57-27.1-6.5-27.8-5.48-28.64-4.38-29.66-3.25-30.9-2.03-32.38-.68-32.57 2.95-.07z" stroke="#3a414a" stroke-width=".05" fill="#3a414a"/><path d="M1315.2 2383.9l-.3-.04-1.18-.07-1.18.06-.3.04-.02-1.64 2.95-.06z" fill="#3a414a"/><path stroke="#3a414a" stroke-width=".05" fill="#3a414a"/><path d="M138.46 766.6h-2.95v-1.54h2.96z" fill="#3a414a"/><path stroke="#3a414a" stroke-width=".05" fill="#3a414a"/><use xlink:href="#t" transform="matrix(1,0,0,1,1266.4725876356192,2250.6153091009155) translate(0 51.66666666666667)"/><path d="M-1082.47 2351.03l-.65 31.3-2.95-.07.65-31.36 1.08-17.3h2.96zM138.43 766.6l-.65 31.35-1.97 31.27-3.13 29.9-4.24 28.8-5.3 27.8-6.35 27.02-7.36 26.38-8.42 25.9-9.5 25.53-10.64 25.32-11.88 25.23-13.22 25.3-14.73 25.5-16.43 25.87-18.4 26.45-20.7 27.26-23.48 28.38-26.94 29.9-31.35 31.98-37.3 35-45.92 39.56-60.17 47.6-92.8 67.16-373.74 256.25-60.08 47.52-45.82 39.5-37.2 34.9-31.28 31.9-26.85 29.8-23.4 28.28-20.64 27.17-18.32 26.35-16.36 25.77-14.66 25.38-13.17 25.18-11.8 25.12-10.6 25.2-9.46 25.43-8.38 25.78-7.33 26.27-6.3 26.9-5.3 27.7-1.12 7.63h-2.97l1.2-8.13 5.3-27.82 6.34-27.02 7.37-26.37 8.4-25.9 9.5-25.53 10.65-25.32 11.87-25.23 13.22-25.3 14.72-25.5 16.43-25.87 18.4-26.45 20.7-27.26 23.5-28.38 26.92-29.9 31.36-32 37.3-34.97 45.9-39.58 60.2-47.62 373.8-256.3 92.72-67.08 60.08-47.52 45.83-39.5 37.2-34.9 31.27-31.9 26.85-29.8 23.4-28.28 20.64-27.17 18.33-26.35 16.36-25.77 14.67-25.4 13.17-25.17 11.83-25.13 10.6-25.2 9.45-25.43 8.37-25.77 7.33-26.26 6.3-26.9 5.3-27.7 4.2-28.63 3.14-29.8 1.96-31.14.65-31.28z" stroke="#3a414a" stroke-width=".05" fill="#3a414a"/><path d="M138.43 766.65l-2.95-.06.03-1.54h2.96z" fill="#3a414a"/><path stroke="#3a414a" stroke-width=".05" fill="#3a414a"/><path d="M-1083.15 2382.26v1.64l-.3-.04-1.18-.07-1.2.06-.28.04v-1.64z" fill="#3a414a"/><path stroke="#3a414a" stroke-width=".05" fill="#3a414a"/><use xlink:href="#s" transform="matrix(1,0,0,1,-1091.552210983675,2269.076579302759) translate(0 51.66666666666667)"/><path d="M1143.25 193.26a3.2 3.2 0 0 0 2.65 4.98h241.25a3.2 3.2 0 0 0 2.65-4.98l-119.92-178.2a4.04 4.04 0 0 0-6.7 0z" stroke="#000" stroke-width="2" fill="#fff"/><path d="M1266.56 200.74v.74l.15 2.22.24 2.2.33 2.18.4 2.2.53 2.18.62 2.2.72 2.24.85 2.27.95 2.3 1.1 2.35 1.28 2.42 1.43 2.5 1.64 2.56 1.86 2.67 2.1 2.8 2.43 2.9 2.76 3.08 3.2 3.26 3.7 3.48 4.3 3.72 5.06 4 6 4.36 7.18 4.76 8.7 5.26 10.72 5.88 13.4 6.64 17.16 7.62 22.55 8.9 30.77 10.67 44.33 13.3 70.05 17.85 142.63 29.8 468.35 88.93 70.06 17.84 44.33 13.3 30.78 10.7 22.56 8.9 17.15 7.6 13.4 6.65 10.72 5.87 8.7 5.27 7.2 4.77 6 4.35 5.05 4 4.3 3.73 3.7 3.47 3.2 3.25 2.77 3.08 2.42 2.92 2.12 2.8 1.86 2.66 1.63 2.57 1.44 2.5 1.27 2.4 1.1 2.36.98 2.3.84 2.27.72 2.23.6 2.2.53 2.2.42 2.2.32 2.18.22 2.2.14 2.2.02.75" stroke="#3a414a" stroke-width="3" stroke-linejoin="round" fill="none"/><path d="M1268 199.24l.03 1.5-2.95.07-.03-1.56zM2412.08 604.4h-2.95v-1.55h2.95z" stroke="#3a414a" stroke-width=".05" fill="#3a414a"/><path d="M1266.5 200.74l-.02.77-.14 2.25-.24 2.22-.32 2.22-.43 2.2-.52 2.22-.62 2.24-.73 2.26-.85 2.28-.98 2.34-1.12 2.38-1.28 2.44-1.45 2.5-1.66 2.6-1.88 2.7-2.13 2.82-2.45 2.95-2.8 3.1-3.22 3.3-3.73 3.5-4.35 3.75-5.1 4.04-6.06 4.4-7.24 4.8-8.78 5.3-10.8 5.93-13.5 6.7-17.3 7.67-22.72 8.97-31.05 10.76-44.78 13.45-71.1 18.12L848.3 375l-441.93 84.7-71.1 18.12-44.8 13.45-31.03 10.77L236.7 511l-17.3 7.7-13.5 6.68-10.8 5.93-8.77 5.3-7.25 4.82-6.04 4.4-5.1 4.03-4.36 3.75-3.73 3.5-3.22 3.3-2.8 3.1-2.45 2.95-2.13 2.8-1.88 2.7-1.65 2.6-1.45 2.52-1.28 2.44-1.13 2.4-.98 2.32-.86 2.3-.74 2.25-.62 2.24-.52 2.23-.42 2.2-.33 2.22-.23 2.23-.14 2.24v.77" stroke="#3a414a" stroke-width="3" stroke-linejoin="round" fill="none"/><path d="M1268 199.24l-.03 1.57-2.95-.05.03-1.5zM138.46 602.85v1.54h-2.95v-1.55z" stroke="#3a414a" stroke-width=".05" fill="#3a414a"/><path d="M2287.33 1212.8a3.2 3.2 0 0 0 2.65 4.98h241.25a3.2 3.2 0 0 0 2.65-4.97l-119.92-178.18a4.04 4.04 0 0 0-6.7 0zM1268.64 547.05a10.07 10.07 0 0 1 10.3 0l225.92 134.6a3.58 3.58 0 0 1 0 6.15l-225.9 134.6a10.07 10.07 0 0 1-10.32 0l-225.9-134.6a3.58 3.58 0 0 1 0-6.15z" stroke="#000" stroke-width="2" fill="#fff"/><g><use xlink:href="#K" transform="matrix(1,0,0,1,1061.201629292747,558.0493517715963) translate(68.60851562500001 111.33699999471527)"/><use xlink:href="#L" transform="matrix(1,0,0,1,1061.201629292747,558.0493517715963) translate(107.01671875000001 169.41512499471526)"/></g><path d="M891.5 686.2h-396v-2.95h396zm146.98 0h-54.1v-2.95h54.1z" stroke="#3a414a" stroke-width=".05" fill="#3a414a"/><path d="M495.53 686.2h-1.55v-2.95h1.55z" fill="#3a414a"/><path stroke="#3a414a" stroke-width=".05" fill="#3a414a"/><path d="M1040.08 683.8l-.1.93.1.93.17.54h-1.8v-2.95h1.8z" fill="#3a414a"/><path stroke="#3a414a" stroke-width=".05" fill="#3a414a"/><g><use xlink:href="#n" transform="matrix(1,0,0,1,891.5095380859178,652.4592785078755) translate(0 51.66666666666667)"/></g><path d="M1539.55 686.2h-30.43v-2.95h30.43zm512.56 0h-419.7v-2.95h419.7z" stroke="#3a414a" stroke-width=".05" fill="#3a414a"/><path d="M1509.15 686.2h-1.8l.16-.54.1-.93-.1-.95-.16-.53h1.8z" fill="#3a414a"/><path stroke="#3a414a" stroke-width=".05" fill="#3a414a"/><path d="M2053.6 686.2h-1.53v-2.95h1.54z" fill="#3a414a"/><path stroke="#3a414a" stroke-width=".05" fill="#3a414a"/><g><use xlink:href="#n" transform="matrix(1,0,0,1,1539.5453711658358,652.4592785078756) translate(0 51.66666666666667)"/></g><defs><path d="M763 24c-353 0-583-224-583-531v-983h190v968c0 214 149 370 393 370 243 0 391-156 391-370v-968h190v983c0 307-230 531-581 531" id="M"/><path d="M538 24C308 24 148-78 108-271l171-41c32 123 123 178 257 178 156 0 256-77 256-169 0-77-54-128-164-154l-186-44c-203-48-300-148-300-305 0-192 176-326 414-326 230 0 351 112 402 269l-163 42c-31-80-94-158-238-158-133 0-233 69-233 162 0 83 57 129 188 160l169 40c203 48 298 149 298 302 0 196-179 339-441 339" id="N"/><path d="M628 24c-324 0-524-230-524-574 0-343 198-582 503-582 237 0 487 146 487 559v75H286c9 234 145 362 343 362 132 0 231-58 273-172l174 48C1024-91 857 24 628 24zM287-650h624c-17-190-120-322-304-322-192 0-309 151-320 322" id="O"/><path d="M158 0v-1118h174v172h12c41-113 157-188 290-188 26 0 70 2 91 3v181c-11-2-60-10-108-10-161 0-279 109-279 260V0H158" id="P"/><g id="a"><use transform="matrix(0.026041666666666668,0,0,0.026041666666666668,0,0)" xlink:href="#M"/><use transform="matrix(0.026041666666666668,0,0,0.026041666666666668,39.6875,0)" xlink:href="#N"/><use transform="matrix(0.026041666666666668,0,0,0.026041666666666668,67.83854166666667,0)" xlink:href="#O"/><use transform="matrix(0.026041666666666668,0,0,0.026041666666666668,98.93229166666667,0)" xlink:href="#P"/></g><path d="M52 0l541-1490h220L1361 0h-200l-149-416H398L254 0H52zm404-582h497c-103-290-145-390-251-756-108 377-145 460-246 756" id="Q"/><path d="M577 24c-279 0-473-224-473-580 0-354 195-576 474-576 218 0 287 134 324 193h14v-551h180V0H922v-173h-20C865-111 790 24 577 24zm27-161c203 0 314-172 314-421 0-247-108-413-314-413-212 0-317 181-317 413 0 235 108 421 317 421" id="R"/><path d="M158 0v-1118h175l1 205c55-151 181-225 313-225 147 0 245 90 285 228 53-141 190-228 352-228 194 0 352 125 352 384V0h-181v-749c0-161-105-225-225-225-151 0-243 103-243 244V0H807v-767c0-124-93-207-219-207-131 0-250 92-250 270V0H158" id="S"/><path d="M158 0v-1118h180V0H158zm91-1301c-68 0-125-53-125-119s57-119 125-119c69 0 126 53 126 119s-57 119-126 119" id="T"/><path d="M338-670V0H158v-1118h173l1 207c72-158 192-221 342-221 226 0 378 139 378 422V0H872v-695c0-172-96-275-252-275-161 0-282 109-282 300" id="U"/><g id="b"><use transform="matrix(0.026041666666666668,0,0,0.026041666666666668,0,0)" xlink:href="#Q"/><use transform="matrix(0.026041666666666668,0,0,0.026041666666666668,36.796875,0)" xlink:href="#R"/><use transform="matrix(0.026041666666666668,0,0,0.026041666666666668,69.453125,0)" xlink:href="#S"/><use transform="matrix(0.026041666666666668,0,0,0.026041666666666668,116.171875,0)" xlink:href="#T"/><use transform="matrix(0.026041666666666668,0,0,0.026041666666666668,129.08854166666666,0)" xlink:href="#U"/></g><path d="M537 14c-226 0-379-139-379-422v-710h180v695c0 172 97 275 253 275 160 0 281-109 281-300v-670h181V0H879v-209C806-46 684 14 537 14" id="V"/><g id="c"><use transform="matrix(0.026041666666666668,0,0,0.026041666666666668,0,0)" xlink:href="#V"/><use transform="matrix(0.026041666666666668,0,0,0.026041666666666668,31.536458333333336,0)" xlink:href="#N"/><use transform="matrix(0.026041666666666668,0,0,0.026041666666666668,59.6875,0)" xlink:href="#O"/><use transform="matrix(0.026041666666666668,0,0,0.026041666666666668,90.78125,0)" xlink:href="#P"/></g><path d="M180 0v-1490h224l606 953c40 63 108 177 176 312-27-437-7-821-13-1265h190V0h-226C860-448 622-778 356-1262c27 476 11 792 15 1262H180" id="W"/><path d="M613 24c-304 0-509-231-509-576 0-350 205-580 509-580 305 0 511 230 511 580 0 345-206 576-511 576zm0-161c226 0 329-195 329-415 0-222-103-419-329-419-223 0-326 196-326 419 0 220 103 415 326 415" id="X"/><path d="M471 26C259 26 90-98 90-318c0-256 228-303 435-329 202-27 287-16 287-108 0-139-79-219-234-219-161 0-248 86-283 164l-173-57c86-203 278-265 451-265 150 0 419 46 419 395V0H815v-152h-12C765-73 660 26 471 26zm31-159c199 0 310-134 310-271v-155c-30 35-226 55-295 64-131 17-246 59-246 186 0 116 97 176 231 176" id="Y"/><path d="M338-1490V0H158v-1490h180" id="Z"/><g id="d"><use transform="matrix(0.026041666666666668,0,0,0.026041666666666668,0,0)" xlink:href="#W"/><use transform="matrix(0.026041666666666668,0,0,0.026041666666666668,40.18229166666667,0)" xlink:href="#X"/><use transform="matrix(0.026041666666666668,0,0,0.026041666666666668,72.16145833333334,0)" xlink:href="#P"/><use transform="matrix(0.026041666666666668,0,0,0.026041666666666668,93.07291666666667,0)" xlink:href="#S"/><use transform="matrix(0.026041666666666668,0,0,0.026041666666666668,139.79166666666669,0)" xlink:href="#Y"/><use transform="matrix(0.026041666666666668,0,0,0.026041666666666668,169.73958333333334,0)" xlink:href="#Z"/></g><path d="M657 26c-323 0-524-166-541-416h195c15 169 171 246 346 246 202 0 356-106 356-265 5-203-294-238-475-293-239-73-380-191-380-389 0-252 224-419 512-419 294 0 499 171 508 396H992c-17-145-151-228-328-228-193 0-321 102-321 242 0 156 175 211 284 241l149 41c160 44 422 134 422 412 0 244-197 432-541 432" id="aa"/><path d="M158 418v-1536h174v179h20c37-59 106-193 324-193 279 0 474 222 474 576 0 356-194 580-473 580-213 0-288-135-325-197h-14v591H158zm492-555c209 0 317-186 317-421 0-232-105-413-317-413-206 0-314 166-314 413 0 249 111 421 314 421" id="ab"/><g id="e"><use transform="matrix(0.026041666666666668,0,0,0.026041666666666668,0,0)" xlink:href="#aa"/><use transform="matrix(0.026041666666666668,0,0,0.026041666666666668,34.21875,0)" xlink:href="#V"/><use transform="matrix(0.026041666666666668,0,0,0.026041666666666668,65.75520833333334,0)" xlink:href="#ab"/><use transform="matrix(0.026041666666666668,0,0,0.026041666666666668,98.41145833333334,0)" xlink:href="#O"/><use transform="matrix(0.026041666666666668,0,0,0.026041666666666668,129.50520833333334,0)" xlink:href="#P"/></g><g id="f"><use transform="matrix(0.026041666666666668,0,0,0.026041666666666668,0,0)" xlink:href="#V"/><use transform="matrix(0.026041666666666668,0,0,0.026041666666666668,31.536458333333336,0)" xlink:href="#N"/><use transform="matrix(0.026041666666666668,0,0,0.026041666666666668,59.6875,0)" xlink:href="#O"/><use transform="matrix(0.026041666666666668,0,0,0.026041666666666668,90.78125,0)" xlink:href="#P"/></g><path d="M645 0H180v-1490h484c435 0 692 280 692 742 0 466-257 748-711 748zM370-168h263c363 0 539-218 539-580 0-358-176-574-521-574H370v1154" id="ac"/><path d="M613 24c-304 0-509-231-509-576 0-350 205-580 509-580 216 0 392 114 453 309l-173 49c-33-115-133-197-280-197-223 0-326 196-326 419 0 220 103 415 326 415 150 0 252-85 285-206l172 49C1010-95 832 24 613 24" id="ad"/><path d="M598-1118v154H368v674c0 100 37 144 132 144 23 0 62-6 92-12L629-6c-37 13-88 20-134 20-193 0-307-107-307-290v-688H20v-154h168v-266h180v266h230" id="ae"/><g id="g"><use transform="matrix(0.026041666666666668,0,0,0.026041666666666668,0,0)" xlink:href="#ac"/><use transform="matrix(0.026041666666666668,0,0,0.026041666666666668,38.489583333333336,0)" xlink:href="#X"/><use transform="matrix(0.026041666666666668,0,0,0.026041666666666668,70.46875,0)" xlink:href="#ad"/><use transform="matrix(0.026041666666666668,0,0,0.026041666666666668,100.9375,0)" xlink:href="#V"/><use transform="matrix(0.026041666666666668,0,0,0.026041666666666668,132.47395833333334,0)" xlink:href="#S"/><use transform="matrix(0.026041666666666668,0,0,0.026041666666666668,179.19270833333334,0)" xlink:href="#O"/><use transform="matrix(0.026041666666666668,0,0,0.026041666666666668,210.28645833333334,0)" xlink:href="#U"/><use transform="matrix(0.026041666666666668,0,0,0.026041666666666668,241.796875,0)" xlink:href="#ae"/></g><g id="h"><use transform="matrix(0.026041666666666668,0,0,0.026041666666666668,0,0)" xlink:href="#ad"/><use transform="matrix(0.026041666666666668,0,0,0.026041666666666668,30.46875,0)" xlink:href="#X"/><use transform="matrix(0.026041666666666668,0,0,0.026041666666666668,62.44791666666667,0)" xlink:href="#Z"/><use transform="matrix(0.026041666666666668,0,0,0.026041666666666668,75.36458333333334,0)" xlink:href="#Z"/><use transform="matrix(0.026041666666666668,0,0,0.026041666666666668,88.28125000000001,0)" xlink:href="#O"/><use transform="matrix(0.026041666666666668,0,0,0.026041666666666668,119.375,0)" xlink:href="#ad"/><use transform="matrix(0.026041666666666668,0,0,0.026041666666666668,149.84375,0)" xlink:href="#ae"/><use transform="matrix(0.026041666666666668,0,0,0.026041666666666668,167.29166666666666,0)" xlink:href="#T"/><use transform="matrix(0.026041666666666668,0,0,0.026041666666666668,180.20833333333331,0)" xlink:href="#X"/><use transform="matrix(0.026041666666666668,0,0,0.026041666666666668,212.18749999999997,0)" xlink:href="#U"/></g><g id="i"><use transform="matrix(0.026041666666666668,0,0,0.026041666666666668,0,0)" xlink:href="#ac"/><use transform="matrix(0.026041666666666668,0,0,0.026041666666666668,38.489583333333336,0)" xlink:href="#X"/><use transform="matrix(0.026041666666666668,0,0,0.026041666666666668,70.46875,0)" xlink:href="#ad"/><use transform="matrix(0.026041666666666668,0,0,0.026041666666666668,100.9375,0)" xlink:href="#V"/><use transform="matrix(0.026041666666666668,0,0,0.026041666666666668,132.47395833333334,0)" xlink:href="#S"/><use transform="matrix(0.026041666666666668,0,0,0.026041666666666668,179.19270833333334,0)" xlink:href="#O"/><use transform="matrix(0.026041666666666668,0,0,0.026041666666666668,210.28645833333334,0)" xlink:href="#U"/><use transform="matrix(0.026041666666666668,0,0,0.026041666666666668,241.796875,0)" xlink:href="#ae"/></g><path d="M180 0v-1490h901v168H370v510h643v168H370V0H180" id="af"/><path d="M611 442c-248 0-391-105-460-228l146-94c47 65 117 165 314 165 178 0 307-82 307-266v-224h-17C863-141 792-18 576-18c-268 0-472-195-472-546 0-346 197-568 476-568 216 0 288 133 326 193h17v-179h175V29c0 289-215 413-487 413zm-5-620c203 0 314-146 314-390 0-237-108-403-314-403-213 0-319 180-319 403 0 230 109 390 319 390" id="ag"/><g id="j"><use transform="matrix(0.026041666666666668,0,0,0.026041666666666668,0,0)" xlink:href="#af"/><use transform="matrix(0.026041666666666668,0,0,0.026041666666666668,29.921875,0)" xlink:href="#P"/><use transform="matrix(0.026041666666666668,0,0,0.026041666666666668,50,0)" xlink:href="#Y"/><use transform="matrix(0.026041666666666668,0,0,0.026041666666666668,79.94791666666667,0)" xlink:href="#ag"/><use transform="matrix(0.026041666666666668,0,0,0.026041666666666668,112.65625,0)" xlink:href="#S"/><use transform="matrix(0.026041666666666668,0,0,0.026041666666666668,159.375,0)" xlink:href="#O"/><use transform="matrix(0.026041666666666668,0,0,0.026041666666666668,190.46875,0)" xlink:href="#U"/><use transform="matrix(0.026041666666666668,0,0,0.026041666666666668,221.97916666666669,0)" xlink:href="#ae"/></g><path d="M338-670V0H158v-1490h180v566c73-149 190-208 336-208 226 0 379 139 379 422V0H872v-695c0-172-96-275-252-275-161 0-282 109-282 300" id="ah"/><g id="k"><use transform="matrix(0.01953125,0,0,0.01953125,0,0)" xlink:href="#ah"/><use transform="matrix(0.01953125,0,0,0.01953125,23.65234375,0)" xlink:href="#Y"/><use transform="matrix(0.01953125,0,0,0.01953125,46.11328125,0)" xlink:href="#N"/></g><g id="l"><use transform="matrix(0.01953125,0,0,0.01953125,0,0)" xlink:href="#Y"/><use transform="matrix(0.01953125,0,0,0.01953125,22.4609375,0)" xlink:href="#ad"/><use transform="matrix(0.01953125,0,0,0.01953125,45.3125,0)" xlink:href="#ad"/><use transform="matrix(0.01953125,0,0,0.01953125,68.1640625,0)" xlink:href="#O"/><use transform="matrix(0.01953125,0,0,0.01953125,91.484375,0)" xlink:href="#N"/><use transform="matrix(0.01953125,0,0,0.01953125,112.59765625,0)" xlink:href="#N"/></g><g id="m"><use transform="matrix(0.01953125,0,0,0.01953125,0,0)" xlink:href="#ae"/><use transform="matrix(0.01953125,0,0,0.01953125,12.6953125,0)" xlink:href="#X"/></g><path fill="#333" d="M690 20C314 20 94-261 94-744c0-482 221-766 596-766 376 0 597 284 597 766 0 483-219 764-597 764zm0-253c184 0 286-184 286-511 0-328-102-514-286-514-183 0-285 187-285 514s101 511 285 511" id="ai"/><path fill="#333" d="M119 395l88-620h300L323 395H119" id="aj"/><path fill="#333" d="M135 0v-1490h340l471 754c59 97 122 210 187 365-32-387-14-721-19-1119h312V0h-341C855-382 627-689 427-1113c32 420 16 695 20 1113H135" id="ak"/><g id="n"><use transform="matrix(0.026041666666666668,0,0,0.026041666666666668,0,0)" xlink:href="#ai"/><use transform="matrix(0.026041666666666668,0,0,0.026041666666666668,34.40104166666667,0)" xlink:href="#aj"/><use transform="matrix(0.026041666666666668,0,0,0.026041666666666668,52.21354166666667,0)" xlink:href="#ak"/></g><g id="o"><use transform="matrix(0.01953125,0,0,0.01953125,0,0)" xlink:href="#T"/><use transform="matrix(0.01953125,0,0,0.01953125,9.6875,0)" xlink:href="#U"/><use transform="matrix(0.01953125,0,0,0.01953125,33.3203125,0)" xlink:href="#ad"/><use transform="matrix(0.01953125,0,0,0.01953125,56.171875,0)" xlink:href="#Z"/><use transform="matrix(0.01953125,0,0,0.01953125,65.859375,0)" xlink:href="#V"/><use transform="matrix(0.01953125,0,0,0.01953125,89.51171875,0)" xlink:href="#R"/><use transform="matrix(0.01953125,0,0,0.01953125,114.00390625,0)" xlink:href="#O"/><use transform="matrix(0.01953125,0,0,0.01953125,137.32421875,0)" xlink:href="#N"/></g><g id="p"><use transform="matrix(0.01953125,0,0,0.01953125,0,0)" xlink:href="#T"/><use transform="matrix(0.01953125,0,0,0.01953125,9.6875,0)" xlink:href="#N"/></g><path d="M677 24c-213 0-288-135-325-197h-20V0H158v-1490h180v551h14c37-59 106-193 324-193 279 0 474 222 474 576 0 356-194 580-473 580zm-27-161c209 0 317-186 317-421 0-232-105-413-317-413-206 0-314 166-314 413 0 249 111 421 314 421" id="al"/><path d="M158 0v-1490h180v865h22l478-493h223L593-638 1096 0H865L456-523 338-412V0H158" id="am"/><g id="q"><use transform="matrix(0.01953125,0,0,0.01953125,0,0)" xlink:href="#al"/><use transform="matrix(0.01953125,0,0,0.01953125,24.4921875,0)" xlink:href="#P"/><use transform="matrix(0.01953125,0,0,0.01953125,38.88671875,0)" xlink:href="#X"/><use transform="matrix(0.01953125,0,0,0.01953125,62.87109375,0)" xlink:href="#am"/><use transform="matrix(0.01953125,0,0,0.01953125,83.92578125,0)" xlink:href="#O"/><use transform="matrix(0.01953125,0,0,0.01953125,107.24609375,0)" xlink:href="#U"/></g><g id="r"><use transform="matrix(0.01953125,0,0,0.01953125,0,0)" xlink:href="#T"/><use transform="matrix(0.01953125,0,0,0.01953125,9.6875,0)" xlink:href="#U"/><use transform="matrix(0.01953125,0,0,0.01953125,33.3203125,0)" xlink:href="#ae"/><use transform="matrix(0.01953125,0,0,0.01953125,46.015625,0)" xlink:href="#X"/></g><path fill="#333" d="M749-1490V0H444v-1221h-10L93-980v-279l329-231h327" id="an"/><use transform="matrix(0.026041666666666668,0,0,0.026041666666666668,0,0)" xlink:href="#an" id="s"/><g id="t"><use transform="matrix(0.026041666666666668,0,0,0.026041666666666668,0,0)" xlink:href="#an"/><use transform="matrix(0.026041666666666668,0,0,0.026041666666666668,22.994791666666668,0)" xlink:href="#aj"/><use transform="matrix(0.026041666666666668,0,0,0.026041666666666668,40.80729166666667,0)" xlink:href="#ak"/></g><path d="M783 20c-382 0-661-292-661-764 0-473 279-766 661-766 302 0 548 182 601 489h-190c-42-204-217-313-411-313-268 0-476 208-476 590 0 381 209 588 476 588 195 0 369-110 411-313h190c-52 303-296 489-601 489" id="ao"/><g id="u"><use transform="matrix(0.026041666666666668,0,0,0.026041666666666668,0,0)" xlink:href="#ao"/><use transform="matrix(0.026041666666666668,0,0,0.026041666666666668,38.958333333333336,0)" xlink:href="#ah"/><use transform="matrix(0.026041666666666668,0,0,0.026041666666666668,70.49479166666667,0)" xlink:href="#Y"/><use transform="matrix(0.026041666666666668,0,0,0.026041666666666668,100.44270833333334,0)" xlink:href="#ae"/></g><path d="M370-1490V0H180v-1490h190" id="ap"/><path d="M481 0L54-1118h197c107 314 236 620 325 951 87-331 217-637 324-951h197L670 0H481" id="aq"/><g id="v"><use transform="matrix(0.026041666666666668,0,0,0.026041666666666668,0,0)" xlink:href="#ap"/><use transform="matrix(0.026041666666666668,0,0,0.026041666666666668,14.322916666666668,0)" xlink:href="#U"/><use transform="matrix(0.026041666666666668,0,0,0.026041666666666668,45.833333333333336,0)" xlink:href="#R"/><use transform="matrix(0.026041666666666668,0,0,0.026041666666666668,78.48958333333334,0)" xlink:href="#T"/><use transform="matrix(0.026041666666666668,0,0,0.026041666666666668,91.40625000000001,0)" xlink:href="#aq"/><use transform="matrix(0.026041666666666668,0,0,0.026041666666666668,121.38020833333334,0)" xlink:href="#T"/><use transform="matrix(0.026041666666666668,0,0,0.026041666666666668,134.296875,0)" xlink:href="#R"/><use transform="matrix(0.026041666666666668,0,0,0.026041666666666668,166.953125,0)" xlink:href="#V"/><use transform="matrix(0.026041666666666668,0,0,0.026041666666666668,198.48958333333334,0)" xlink:href="#Y"/><use transform="matrix(0.026041666666666668,0,0,0.026041666666666668,228.4375,0)" xlink:href="#Z"/></g><g id="w"><use transform="matrix(0.026041666666666668,0,0,0.026041666666666668,0,0)" xlink:href="#ad"/><use transform="matrix(0.026041666666666668,0,0,0.026041666666666668,30.46875,0)" xlink:href="#ah"/><use transform="matrix(0.026041666666666668,0,0,0.026041666666666668,62.005208333333336,0)" xlink:href="#Y"/><use transform="matrix(0.026041666666666668,0,0,0.026041666666666668,91.953125,0)" xlink:href="#ae"/></g><path d="M789 20c-398 0-667-293-667-764 0-473 273-766 655-766 315 0 558 198 612 487h-196c-61-191-204-311-415-311-262 0-471 207-471 590 0 380 208 588 482 588 249 0 420-165 425-427H828v-166h572v163c0 370-256 606-611 606" id="ar"/><g id="x"><use transform="matrix(0.026041666666666668,0,0,0.026041666666666668,0,0)" xlink:href="#ar"/><use transform="matrix(0.026041666666666668,0,0,0.026041666666666668,39.79166666666667,0)" xlink:href="#P"/><use transform="matrix(0.026041666666666668,0,0,0.026041666666666668,58.984375,0)" xlink:href="#X"/><use transform="matrix(0.026041666666666668,0,0,0.026041666666666668,90.96354166666667,0)" xlink:href="#V"/><use transform="matrix(0.026041666666666668,0,0,0.026041666666666668,122.5,0)" xlink:href="#ab"/></g><g id="y"><use transform="matrix(0.026041666666666668,0,0,0.026041666666666668,0,0)" xlink:href="#ad"/><use transform="matrix(0.026041666666666668,0,0,0.026041666666666668,30.46875,0)" xlink:href="#ah"/><use transform="matrix(0.026041666666666668,0,0,0.026041666666666668,62.005208333333336,0)" xlink:href="#Y"/><use transform="matrix(0.026041666666666668,0,0,0.026041666666666668,91.953125,0)" xlink:href="#ae"/></g><g id="z"><use transform="matrix(0.026041666666666668,0,0,0.026041666666666668,0,0)" xlink:href="#ar"/><use transform="matrix(0.026041666666666668,0,0,0.026041666666666668,39.79166666666667,0)" xlink:href="#P"/><use transform="matrix(0.026041666666666668,0,0,0.026041666666666668,58.984375,0)" xlink:href="#X"/><use transform="matrix(0.026041666666666668,0,0,0.026041666666666668,90.96354166666667,0)" xlink:href="#V"/><use transform="matrix(0.026041666666666668,0,0,0.026041666666666668,122.5,0)" xlink:href="#ab"/></g><g id="A"><use transform="matrix(0.026041666666666668,0,0,0.026041666666666668,0,0)" xlink:href="#ad"/><use transform="matrix(0.026041666666666668,0,0,0.026041666666666668,30.46875,0)" xlink:href="#ah"/><use transform="matrix(0.026041666666666668,0,0,0.026041666666666668,62.005208333333336,0)" xlink:href="#Y"/><use transform="matrix(0.026041666666666668,0,0,0.026041666666666668,91.953125,0)" xlink:href="#ae"/></g><g id="B"><use transform="matrix(0.026041666666666668,0,0,0.026041666666666668,0,0)" xlink:href="#S"/><use transform="matrix(0.026041666666666668,0,0,0.026041666666666668,46.71875,0)" xlink:href="#O"/><use transform="matrix(0.026041666666666668,0,0,0.026041666666666668,77.8125,0)" xlink:href="#N"/><use transform="matrix(0.026041666666666668,0,0,0.026041666666666668,105.96354166666667,0)" xlink:href="#N"/><use transform="matrix(0.026041666666666668,0,0,0.026041666666666668,134.11458333333334,0)" xlink:href="#Y"/><use transform="matrix(0.026041666666666668,0,0,0.026041666666666668,164.0625,0)" xlink:href="#ag"/><use transform="matrix(0.026041666666666668,0,0,0.026041666666666668,196.77083333333334,0)" xlink:href="#O"/></g><g id="C"><use transform="matrix(0.026041666666666668,0,0,0.026041666666666668,0,0)" xlink:href="#ap"/><use transform="matrix(0.026041666666666668,0,0,0.026041666666666668,14.322916666666668,0)" xlink:href="#U"/><use transform="matrix(0.026041666666666668,0,0,0.026041666666666668,45.833333333333336,0)" xlink:href="#R"/><use transform="matrix(0.026041666666666668,0,0,0.026041666666666668,78.48958333333334,0)" xlink:href="#T"/><use transform="matrix(0.026041666666666668,0,0,0.026041666666666668,91.40625000000001,0)" xlink:href="#aq"/><use transform="matrix(0.026041666666666668,0,0,0.026041666666666668,121.38020833333334,0)" xlink:href="#T"/><use transform="matrix(0.026041666666666668,0,0,0.026041666666666668,134.296875,0)" xlink:href="#R"/><use transform="matrix(0.026041666666666668,0,0,0.026041666666666668,166.953125,0)" xlink:href="#V"/><use transform="matrix(0.026041666666666668,0,0,0.026041666666666668,198.48958333333334,0)" xlink:href="#Y"/><use transform="matrix(0.026041666666666668,0,0,0.026041666666666668,228.4375,0)" xlink:href="#Z"/></g><g id="D"><use transform="matrix(0.026041666666666668,0,0,0.026041666666666668,0,0)" xlink:href="#ad"/><use transform="matrix(0.026041666666666668,0,0,0.026041666666666668,30.46875,0)" xlink:href="#ah"/><use transform="matrix(0.026041666666666668,0,0,0.026041666666666668,62.005208333333336,0)" xlink:href="#Y"/><use transform="matrix(0.026041666666666668,0,0,0.026041666666666668,91.953125,0)" xlink:href="#ae"/></g><g id="E"><use transform="matrix(0.026041666666666668,0,0,0.026041666666666668,0,0)" xlink:href="#S"/><use transform="matrix(0.026041666666666668,0,0,0.026041666666666668,46.71875,0)" xlink:href="#O"/><use transform="matrix(0.026041666666666668,0,0,0.026041666666666668,77.8125,0)" xlink:href="#N"/><use transform="matrix(0.026041666666666668,0,0,0.026041666666666668,105.96354166666667,0)" xlink:href="#N"/><use transform="matrix(0.026041666666666668,0,0,0.026041666666666668,134.11458333333334,0)" xlink:href="#Y"/><use transform="matrix(0.026041666666666668,0,0,0.026041666666666668,164.0625,0)" xlink:href="#ag"/><use transform="matrix(0.026041666666666668,0,0,0.026041666666666668,196.77083333333334,0)" xlink:href="#O"/></g><g id="F"><use transform="matrix(0.026041666666666668,0,0,0.026041666666666668,0,0)" xlink:href="#ao"/><use transform="matrix(0.026041666666666668,0,0,0.026041666666666668,38.958333333333336,0)" xlink:href="#ah"/><use transform="matrix(0.026041666666666668,0,0,0.026041666666666668,70.49479166666667,0)" xlink:href="#Y"/><use transform="matrix(0.026041666666666668,0,0,0.026041666666666668,100.44270833333334,0)" xlink:href="#ae"/></g><g id="G"><use transform="matrix(0.01953125,0,0,0.01953125,0,0)" xlink:href="#ad"/><use transform="matrix(0.01953125,0,0,0.01953125,22.8515625,0)" xlink:href="#X"/><use transform="matrix(0.01953125,0,0,0.01953125,46.8359375,0)" xlink:href="#U"/><use transform="matrix(0.01953125,0,0,0.01953125,70.46875,0)" xlink:href="#ae"/><use transform="matrix(0.01953125,0,0,0.01953125,83.75,0)" xlink:href="#Y"/><use transform="matrix(0.01953125,0,0,0.01953125,106.2109375,0)" xlink:href="#T"/><use transform="matrix(0.01953125,0,0,0.01953125,115.8984375,0)" xlink:href="#U"/><use transform="matrix(0.01953125,0,0,0.01953125,139.53125,0)" xlink:href="#N"/></g><g id="H"><use transform="matrix(0.01953125,0,0,0.01953125,0,0)" xlink:href="#ad"/><use transform="matrix(0.01953125,0,0,0.01953125,22.8515625,0)" xlink:href="#X"/><use transform="matrix(0.01953125,0,0,0.01953125,46.8359375,0)" xlink:href="#U"/><use transform="matrix(0.01953125,0,0,0.01953125,70.46875,0)" xlink:href="#ae"/><use transform="matrix(0.01953125,0,0,0.01953125,83.75,0)" xlink:href="#Y"/><use transform="matrix(0.01953125,0,0,0.01953125,106.2109375,0)" xlink:href="#T"/><use transform="matrix(0.01953125,0,0,0.01953125,115.8984375,0)" xlink:href="#U"/><use transform="matrix(0.01953125,0,0,0.01953125,139.53125,0)" xlink:href="#N"/></g><g id="I"><use transform="matrix(0.01953125,0,0,0.01953125,0,0)" xlink:href="#S"/><use transform="matrix(0.01953125,0,0,0.01953125,35.0390625,0)" xlink:href="#O"/><use transform="matrix(0.01953125,0,0,0.01953125,58.359375,0)" xlink:href="#S"/><use transform="matrix(0.01953125,0,0,0.01953125,93.3984375,0)" xlink:href="#al"/><use transform="matrix(0.01953125,0,0,0.01953125,117.890625,0)" xlink:href="#O"/><use transform="matrix(0.01953125,0,0,0.01953125,141.2109375,0)" xlink:href="#P"/></g><path d="M678-1118v154H420V0H240v-964H20v-154h220v-149c0-194 155-293 318-293 85 0 141 18 168 30l-50 154c-19-6-47-17-97-17-111 0-159 58-159 166v109h258" id="as"/><g id="J"><use transform="matrix(0.01953125,0,0,0.01953125,0,0)" xlink:href="#X"/><use transform="matrix(0.01953125,0,0,0.01953125,23.984375,0)" xlink:href="#as"/></g><path d="M692-1560L212 224H46l480-1784h166" id="at"/><g id="K"><use transform="matrix(0.01953125,0,0,0.01953125,0,0)" xlink:href="#N"/><use transform="matrix(0.01953125,0,0,0.01953125,21.11328125,0)" xlink:href="#O"/><use transform="matrix(0.01953125,0,0,0.01953125,44.43359375,0)" xlink:href="#U"/><use transform="matrix(0.01953125,0,0,0.01953125,68.06640625,0)" xlink:href="#R"/><use transform="matrix(0.01953125,0,0,0.01953125,92.55859375,0)" xlink:href="#N"/><use transform="matrix(0.01953125,0,0,0.01953125,113.671875,0)" xlink:href="#at"/><use transform="matrix(0.01953125,0,0,0.01953125,128.0859375,0)" xlink:href="#P"/><use transform="matrix(0.01953125,0,0,0.01953125,142.48046875,0)" xlink:href="#O"/><use transform="matrix(0.01953125,0,0,0.01953125,165.80078125,0)" xlink:href="#ad"/><use transform="matrix(0.01953125,0,0,0.01953125,188.65234375,0)" xlink:href="#O"/><use transform="matrix(0.01953125,0,0,0.01953125,211.97265625,0)" xlink:href="#T"/><use transform="matrix(0.01953125,0,0,0.01953125,221.66015625,0)" xlink:href="#aq"/><use transform="matrix(0.01953125,0,0,0.01953125,243.359375,0)" xlink:href="#O"/><use transform="matrix(0.01953125,0,0,0.01953125,266.6796875,0)" xlink:href="#N"/></g><g id="L"><use transform="matrix(0.01953125,0,0,0.01953125,0,0)" xlink:href="#U"/><use transform="matrix(0.01953125,0,0,0.01953125,23.6328125,0)" xlink:href="#X"/><use transform="matrix(0.01953125,0,0,0.01953125,47.6171875,0)" xlink:href="#ae"/><use transform="matrix(0.01953125,0,0,0.01953125,60.703125,0)" xlink:href="#T"/><use transform="matrix(0.01953125,0,0,0.01953125,70.390625,0)" xlink:href="#as"/><use transform="matrix(0.01953125,0,0,0.01953125,85.1953125,0)" xlink:href="#T"/><use transform="matrix(0.01953125,0,0,0.01953125,94.8828125,0)" xlink:href="#ad"/><use transform="matrix(0.01953125,0,0,0.01953125,118.125,0)" xlink:href="#Y"/><use transform="matrix(0.01953125,0,0,0.01953125,140.5859375,0)" xlink:href="#ae"/><use transform="matrix(0.01953125,0,0,0.01953125,153.671875,0)" xlink:href="#T"/><use transform="matrix(0.01953125,0,0,0.01953125,163.359375,0)" xlink:href="#X"/><use transform="matrix(0.01953125,0,0,0.01953125,187.34375,0)" xlink:href="#U"/></g></defs></g></svg>